<svg width="16" height="16" viewBox="0 0 16 16" xmlns="http://www.w3.org/2000/svg">
  <!-- 机台主体 -->
  <rect x="2" y="6" width="12" height="9" rx="1" fill="#2C3E50"/>
  
  <!-- 屏幕 -->
  <path d="M 2 1 L 14 1 L 13 6 L 3 6 Z" fill="#1E40AF"/>
  <path d="M 3 2 L 13 2 L 12 5 L 4 5 Z" fill="#000"/>
  
  <!-- 屏幕内容 - 简化的彩色点 -->
  <rect x="5" y="2.5" width="1" height="1" fill="#FF6B6B"/>
  <rect x="7" y="2.5" width="1" height="1" fill="#4ECDC4"/>
  <rect x="9" y="2.5" width="1" height="1" fill="#45B7D1"/>
  <rect x="11" y="2.5" width="1" height="1" fill="#96CEB4"/>
  
  <rect x="6" y="3.5" width="1" height="1" fill="#FFEAA7"/>
  <rect x="8" y="3.5" width="1" height="1" fill="#DDA0DD"/>
  <rect x="10" y="3.5" width="1" height="1" fill="#98D8C8"/>
  
  <!-- 控制面板 -->
  <rect x="3" y="6" width="10" height="3" fill="#3498DB"/>
  
  <!-- 简化按钮 -->
  <circle cx="5" cy="7.5" r="0.8" fill="#E74C3C"/>
  <circle cx="8" cy="7.5" r="0.8" fill="#F8C471"/>
  <circle cx="11" cy="7.5" r="0.8" fill="#F39C12"/>
</svg> 